<?xml version="1.0"?>
<svg xmlns="http://www.w3.org/2000/svg" xmlns:xlink="http://www.w3.org/1999/xlink" version="1.1" id="Capa_1" x="0px" y="0px" viewBox="0 0 395 395" style="enable-background:new 0 0 395 395;" xml:space="preserve" width="512px" height="512px" class=""><g><g>
	<path d="M268.309,78.411h-0.4c-11.046,0-20,8.954-20,20v70.721H147.097V98.411c0-11.046-8.954-20-20-20h-0.4   c-11.046,0-20,8.954-20,20v183.733c0,11.046,8.954,20,20,20h0.4c11.046,0,20-8.954,20-20v-72.611h100.812v72.611   c0,11.046,8.954,20,20,20h0.4c11.046,0,20-8.954,20-20V98.411C288.309,87.365,279.354,78.411,268.309,78.411z" data-original="#000000" class="active-path" data-old_color="#000000" fill="#007BFF"/>
	<path d="M313.002,0H82C36.785,0,0,36.784,0,81.998v230.993C0,358.211,36.785,395,82,395h231.002   C358.216,395,395,358.211,395,312.991V81.998C395,36.784,358.216,0,313.002,0z M380,312.991C380,349.94,349.944,380,313.002,380H82   c-36.944,0-67-30.06-67-67.009V81.998C15,45.055,45.056,15,82,15h231.002C349.944,15,380,45.055,380,81.998V312.991z" data-original="#000000" class="active-path" data-old_color="#000000" fill="#007BFF"/>
</g></g> </svg>
